# AST/ASF file generated using VICON BodyLanguage
# -----------------------------------------------
:version 1.10
:name VICON
:units
  mass 1.0
  length 0.45
  angle deg
:documentation
   .ast/.asf automatically generated from VICON data using
   VICON BodyBuilder and BodyLanguage model FoxedUp or BRILLIANT.MOD
:root
   order TX TY TZ RX RY RZ
   axis XYZ
   position 0 0 0  
   orientation 0 0 0 
:bonedata
  begin
     id 1 
     name lhipjoint
     direction 0.756833 -0.6125 0.228138 
     length 2.53827 
     axis 0 0 0  XYZ
  end
  begin
     id 2 
     name lfemur
     direction 0.34202 -0.939693 0  
     length 6.51821  
     axis 0 0 20  XYZ
    dof rx ry rz
    limits (-160.0 20.0)
           (-70.0 70.0)
           (-60.0 70.0)
  end
  begin
     id 3 
     name ltibia
     direction 0.34202 -0.939693 0   
     length 6.99902   
     axis 0 0 20   XYZ
    dof rx
    limits (-10.0 170.0)
  end
  begin
     id 4 
     name lfoot
     direction 0.0951515 -0.261427 0.960522   
     length 1.92102   
     axis -90 7.62852e-016 20   XYZ
    dof rx rz
    limits (-45.0 90.0)
           (-70.0 20.0)
  end
  begin
     id 5 
     name ltoes
     direction 1.53539e-011 -4.21781e-011 1   
     length 0.964376   
     axis -90 7.62852e-016 20   XYZ
    dof rx
    limits (-90.0 20.0)
  end
  begin
     id 6 
     name rhipjoint
     direction -0.752153 -0.617542 0.230017   
     length 2.51754  
     axis 0 0 0  XYZ 
  end
  begin
     id 7 
     name rfemur
     direction -0.34202 -0.939693 0   
     length 6.82377   
     axis 0 0 -20   XYZ
    dof rx ry rz
    limits (-160.0 20.0)
           (-70.0 70.0)
           (-70.0 60.0)
  end
  begin
     id 8 
     name rtibia
     direction -0.34202 -0.939693 0   
     length 6.98689   
     axis 0 0 -20   XYZ
    dof rx
    limits (-10.0 170.0)
 end
 begin
     id 9 
     name rfoot
     direction -0.0900426 -0.24739 0.964723   
     length 2.03215  
     axis -90 -7.62852e-016 -20   XYZ
    dof rx rz
    limits (-45.0 90.0)
           (-20.0 70.0)
  end
  begin
     id 10 
     name rtoes
     direction -1.53466e-011 -4.22206e-011 1   
     length 1.0197   
     axis -90 -7.62852e-016 -20   XYZ
    dof rx
    limits (-90.0 20.0)
  end
  begin
     id 11 
     name lowerback
     direction 0.0184183 0.995705 -0.0907278   
     length 2.019   
     axis 0 0 0   XYZ
    dof rx ry rz
    limits (-20.0 45.0)
           (-30.0 30.0)
           (-30.0 30.0)
  end
  begin
     id 12 
     name upperback
     direction 0.00281055 0.998777 0.0493607   
     length 1.99623   
     axis 0 0 0   XYZ
    dof rx ry rz
    limits (-20.0 45.0)
           (-30.0 30.0)
           (-30.0 30.0)
  end
  begin
     id 13 
     name thorax
     direction -0.00665507 0.995706 0.092331   
     length 2.02811   
     axis 0 0 0   XYZ
    dof rx ry rz
    limits (-20.0 45.0)
           (-30.0 30.0)
           (-30.0 30.0)
  end
  begin
     id 14 
     name lowerneck
     direction -0.0960965 0.994358 0.0449225   
     length 1.71265   
     axis 0 0 0   XYZ
    dof rx ry rz
    limits (-20.0 45.0)
           (-30.0 30.0)
           (-30.0 30.0)
  end
  begin
     id 15 
     name upperneck
     direction 0.13642 0.985357 -0.102278   
     length 1.73016   
     axis 0 0 0   XYZ
    dof rx ry rz
    limits (-20.0 45.0)
           (-30.0 30.0)
           (-30.0 30.0)
  end
  begin
     id 16
     name head
     direction 0.0556079 0.997632 -0.040479  
     length 1.74275  
     axis 0 0 0   XYZ
    dof rx ry rz
    limits (-20.0 45.0)
           (-30.0 30.0)
           (-30.0 30.0)
  end
  begin
     id 17 
     name lclavicle
     direction 0.90877 0.417247 -0.00652364  
     length 3.25514  
     axis 0 0 0   XYZ
    dof ry rz
    limits (-20.0 10.0)
           (0.0 20.0)
  end
  begin
     id 18 
     name lhumerus
     direction 1 -4.48949e-011 8.31417e-028   
     length 4.84834   
     axis 180 -30 -90   XYZ
    dof rx ry rz
    limits (-60.0 90.0)
           (-90.0 90.0)
           (-90.0 90.0)
  end
  begin
     id 19
     name lradius
     direction 1 -4.48984e-011 3.45616e-027   
     length 2.99713   
     axis 180 -30 -90   XYZ
    dof rx
    limits (-10.0 170.0)
  end
  begin
     id 20
     name lwrist
     direction 1 -4.4891e-011 4.0479e-027   
     length 1.49857   
     axis -1.61768e-015 90 90   XYZ
    dof ry
    limits (-180.0 0.0)
 end
  begin
     id 21 
     name lhand
     direction 1 -4.49025e-011 8.0958e-027   
     length 0.693987   
     axis -5.16581e-015 90 90   XYZ
    dof rx rz
    limits (-90.0 90.0)
           (-45.0 45.0)
  end
  begin
     id 22 
     name lfingers
     direction 1 -4.4888e-011 1.61916e-026   
     length 0.55951   
     axis -1.03316e-014 90 90   XYZ
    dof rx
    limits (0.0 90.0)
  end
  begin
     id 23
     name lthumb
     direction 0.707107 -6.3493e-011 0.707107   
     length 0.803348   
     axis -90 45 2.85299e-015   XYZ
    dof rx rz
    limits (-45.0 45.0)
           (-45.0 45.0)
  end
  begin
     id 24 
     name rclavicle
     direction -0.906655 0.41906 0.0486307   
     length 3.3311  
     axis 0 0 0   XYZ 
    dof ry rz
    limits (-10.0 20.0)
           (-20.0 0.0)
  end
  begin
     id 25 
     name rhumerus
     direction -1 -4.48959e-011 6.37764e-018  
     length 4.93457   
     axis 180 30 90   XYZ
    dof rx ry rz
    limits (-90.0 60.0)
           (-90.0 90.0)
           (-90.0 90.0)
  end
  begin
     id 26 
     name rradius
     direction -1 -4.48957e-011 2.20847e-027   
     length 3.3443   
     axis 180 30 90   XYZ
    dof rx
    limits (-10.0 170.0)
  end
  begin
     id 27 
     name rwrist
     direction -1 -4.49008e-011 4.0479e-027   
     length 1.67215   
     axis -1.61768e-015 -90 -90   XYZ
    dof ry
    limits (-180.0 0.0)
  end
  begin
     id 28
     name rhand
     direction -1 -4.49013e-011 8.0958e-027   
     length 0.677363   
     axis -5.16581e-015 -90 -90   XYZ
    dof rx rz
    limits (-90.0 90.0)
           (-45.0 45.0)
  end
  begin
     id 29
     name rfingers
     direction -1 -4.48832e-011 1.61916e-026   
     length 0.546107   
     axis -1.03316e-014 -90 -90   XYZ
    dof rx
    limits (0.0 90.0)
  end
  begin
     id 30
     name rthumb
     direction -0.707107 -6.34895e-011 0.707107   
     length 0.784104   
     axis -90 -45 -2.85299e-015   XYZ
    dof rx rz
    limits (-45.0 45.0)
           (-45.0 45.0)
  end
:hierarchy
  begin
    root lhipjoint rhipjoint lowerback
    lhipjoint lfemur
    lfemur ltibia
    ltibia lfoot
    lfoot ltoes
    rhipjoint rfemur
    rfemur rtibia
    rtibia rfoot
    rfoot rtoes
    lowerback upperback
    upperback thorax
    thorax lowerneck lclavicle rclavicle
    lowerneck upperneck
    upperneck head
    lclavicle lhumerus
    lhumerus lradius
    lradius lwrist
    lwrist lhand lthumb
    lhand lfingers
    rclavicle rhumerus
    rhumerus rradius
    rradius rwrist
    rwrist rhand rthumb
    rhand rfingers
  end

#!OML:ASF H:\Terrain\Patient Classification 1\junglegym\FridayTest\junglegym.ASF
:FULLY-SPECIFIED
:DEGREES
679
root -6.21755 15.8851 0.335991 142.698 -80.2935 -163.085
lowerback 20.6058 -0.808934 1.90265
upperback -2.07964 -0.64758 -0.239092
thorax -14.0352 -0.465712 -1.14754
lowerneck 7.62527 2.07833 -14.9708
upperneck 36.5732 -4.46192 14.0815
head 11.1239 -4.07738 7.62646
rclavicle 4.27387e-015 1.59028e-015
rhumerus 81.4467 -7.36297 -73.5492
rradius 52.4796
rwrist 10.9909
rhand -22.1461 33.5291
rfingers 7.12502
rthumb 4.26769 3.59206
lclavicle 4.27387e-015 1.59028e-015
lhumerus 89.0949 5.17962 70.9206
lradius 50.3808
lwrist -42.0227
lhand -12.3804 18.1213
lfingers 7.12502
lthumb 13.6904 47.651
rfemur -47.4458 10.5582 24.6771
rtibia 51.6516
rfoot -4.42648 -2.2172
rtoes 36.931
lfemur -42.5372 -2.55881 -20.5826
ltibia 36.15
lfoot -4.06994 4.25256
ltoes -18.9248
680
root -5.88854 15.9035 0.364694 144.159 -80.5992 -163.472
lowerback 20.7195 -0.837826 1.70522
upperback -2.19866 -0.752228 -0.38716
thorax -14.2456 -0.507322 -1.16775
lowerneck 7.4157 2.0859 -14.9784
upperneck 37.0263 -4.58659 14.2605
head 11.3793 -4.14446 7.72442
rclavicle 1.18277e-014 -7.95139e-015
rhumerus 81.5342 -7.09454 -73.8648
rradius 52.2458
rwrist 11.6777
rhand -23.0414 33.302
rfingers 7.12502
rthumb 3.40316 3.34939
lclavicle 1.18277e-014 -7.95139e-015
lhumerus 88.8579 5.52514 70.4302
lradius 50.7414
lwrist -41.5058
lhand -12.901 18.2956
lfingers 7.12502
lthumb 13.1886 47.8584
rfemur -46.6886 10.1325 24.5312
rtibia 51.5579
rfoot -4.76378 -2.09473
rtoes 37.0979
lfemur -41.8708 -2.44271 -21.135
ltibia 36.3779
lfoot -4.20596 4.06622
ltoes -21.4817
681
root -5.53182 15.9567 0.404391 145.573 -80.8628 -163.42
lowerback 20.4366 -0.897967 1.65746
upperback -2.36746 -0.865881 -0.533577
thorax -14.2841 -0.563406 -1.27144
lowerneck 7.1267 2.00172 -14.7314
upperneck 37.4144 -4.74692 14.2066
head 11.6266 -4.2001 7.67098
rclavicle 1.15295e-014 -6.75868e-015
rhumerus 81.5817 -7.11941 -74.0213
rradius 52.2116
rwrist 11.8364
rhand -23.8287 33.0888
rfingers 7.12502
rthumb 2.64282 3.12539
lclavicle 1.15295e-014 -6.75868e-015
lhumerus 88.7249 6.10637 69.6199
lradius 51.1997
lwrist -40.5112
lhand -13.4426 17.8655
lfingers 7.12502
lthumb 12.6665 47.4614
rfemur -46.2116 9.81709 24.236
rtibia 51.3869
rfoot -5.10638 -1.79401
rtoes 38.9396
lfemur -41.6952 -3.24218 -20.9182
ltibia 36.5812
lfoot -4.44374 4.32929
ltoes -11.6199
682
root -5.21795 15.9618 0.448582 146.161 -81.0101 -162.314
lowerback 19.8701 -1.02015 1.91745
upperback -2.53465 -0.964835 -0.500503
thorax -14.1545 -0.626731 -1.35478
lowerneck 6.76802 1.96554 -14.8709
upperneck 37.685 -4.76967 14.1566
head 11.8218 -4.22612 7.6951
rclavicle -1.41137e-014 -2.90226e-014
rhumerus 81.5641 -7.14366 -73.9333
rradius 52.3407
rwrist 11.7562
rhand -23.6458 33.5671
rfingers 7.12502
rthumb 2.81943 3.60595
lclavicle -1.41137e-014 -2.90226e-014
lhumerus 88.749 6.51157 69.4171
lradius 51.4342
lwrist -40.0397
lhand -14.0109 17.4913
lfingers 7.12502
lthumb 12.1186 47.1204
rfemur -46.1285 9.21361 24.3738
rtibia 51.3069
rfoot -5.02365 -1.47076
rtoes 34.9993
lfemur -41.9437 -3.80364 -20.7778
ltibia 36.9232
lfoot -4.47208 4.76733
ltoes -13.1794
683
root -4.94157 15.9312 0.438016 148.447 -80.3014 -162.876
lowerback 19.0583 -0.702063 1.44501
upperback -2.70496 -0.627831 -0.22443
thorax -13.8472 -0.417704 -0.883993
lowerneck 6.55682 2.01297 -15.0619
upperneck 37.8779 -4.70459 14.1937
head 11.9393 -4.21504 7.76644
rclavicle 1.6201e-014 2.66371e-014
rhumerus 81.6068 -6.96366 -73.9412
rradius 52.42
rwrist 11.5938
rhand -21.9624 34.8099
rfingers 7.12502
rthumb 4.44504 4.87654
lclavicle 1.6201e-014 2.66371e-014
lhumerus 88.7176 6.65115 69.5472
lradius 51.5174
lwrist -40.2212
lhand -14.535 17.4495
lfingers 7.12502
lthumb 11.6132 47.1077
rfemur -46.0845 9.67436 25.1178
rtibia 51.1562
rfoot -4.62502 -1.64283
rtoes 26.1411
lfemur -42.2419 -2.7588 -20.6453
ltibia 37.4572
lfoot -4.20599 4.68794
ltoes -24.9134
